# File created by Blade
# Date/Time:  Thu Sep 25 21:01:51 2014
# Frame Rate: 120.000 fps
#------------------------------------------------------
:FULLY-SPECIFIED
:DEGREES
3735
root -3.476349 14.280044 2.370666 30.704432 -14.815409 4.100317
Spine -31.702557 0.098545 -5.873437
Head 2.238194 -3.039274 8.021202
LeftShoulder -22.735901 25.201440 6.345276
LeftArm 12.875993 19.732659 -75.887269
LeftForeArm 6.392776 -0.000000 29.206945
LeftHand -22.995824 -0.000000 -4.042381
LeftHandThumb1 -26.253704 0.000000 33.147579
RightShoulder -25.013394 -2.213355 -28.375222
RightArm -44.812503 -21.400640 94.881134
RightForeArm -35.888541 -0.000000 9.886063
RightHand -6.427108 -0.000000 33.382882
RightHandThumb1 -24.326973 -0.000000 -32.862282
LeftUpLeg -127.495970 14.137988 -20.323151
LeftLeg 112.939382 -0.000000 -0.000000
LeftFoot -20.176471 -8.582669 -2.429751
LeftToeBase 5.443879 -0.000000 -0.000000
RightUpLeg 8.193444 17.519060 -11.289991
RightLeg 131.645148 -0.000000 -0.000000
RightFoot 40.529641 -5.328965 7.863998
RightToeBase 21.582017 -0.000000 -0.000000
3736
root -3.476119 14.282505 2.367002 30.717355 -14.789362 4.117510
Spine -31.665886 0.036286 -5.840578
Head 2.213940 -3.125597 8.017855
LeftShoulder -22.686900 25.211375 6.357585
LeftArm 12.915977 19.726100 -75.826031
LeftForeArm 6.447950 -0.000000 29.218843
LeftHand -23.004736 -0.000000 -4.200936
LeftHandThumb1 -26.253704 0.000000 33.147579
RightShoulder -25.007410 -2.211583 -28.384503
RightArm -44.768776 -21.382869 94.867051
RightForeArm -35.859796 0.000000 9.890971
RightHand -6.369528 -0.000000 33.227413
RightHandThumb1 -24.326973 -0.000000 -32.862282
LeftUpLeg -127.502413 14.111954 -20.345842
LeftLeg 112.915654 -0.000000 -0.000000
LeftFoot -20.155710 -8.594521 -2.385278
LeftToeBase 5.470377 -0.000000 -0.000000
RightUpLeg 8.171456 17.464931 -11.295288
RightLeg 131.666178 -0.000000 -0.000000
RightFoot 40.519582 -5.308166 7.828608
RightToeBase 21.432063 -0.000000 -0.000000
3737
root -3.475467 14.285671 2.362977 30.736210 -14.760225 4.134263
Spine -31.642856 -0.037184 -5.793319
Head 2.202904 -3.143172 7.994982
LeftShoulder -22.629041 25.208682 6.371899
LeftArm 12.932158 19.707305 -75.775058
LeftForeArm 6.537960 -0.000000 29.215083
LeftHand -22.979417 0.000000 -4.319823
LeftHandThumb1 -26.253704 0.000000 33.147579
RightShoulder -24.977564 -2.204513 -28.403562
RightArm -44.726481 -21.326928 94.843264
RightForeArm -35.894726 -0.000000 9.901999
RightHand -6.379925 -0.000000 33.148774
RightHandThumb1 -24.326973 -0.000000 -32.862282
LeftUpLeg -127.507856 14.074311 -20.371060
LeftLeg 112.883438 -0.000000 -0.000000
LeftFoot -20.144160 -8.585196 -2.337805
LeftToeBase 5.399283 -0.000000 -0.000000
RightUpLeg 8.141460 17.408944 -11.306707
RightLeg 131.689004 -0.000000 -0.000000
RightFoot 40.508813 -5.312748 7.851966
RightToeBase 21.481108 -0.000000 -0.000000
3738
root -3.474819 14.289467 2.358407 30.755225 -14.732507 4.151810
Spine -31.613608 -0.108697 -5.755724
Head 2.189045 -3.147106 7.991622
LeftShoulder -22.572985 25.212685 6.387577
LeftArm 12.984684 19.714139 -75.694836
LeftForeArm 6.583818 0.000000 29.207712
LeftHand -22.935782 -0.000000 -4.324166
LeftHandThumb1 -26.253704 0.000000 33.147579
RightShoulder -24.953994 -2.204180 -28.394457
RightArm -44.679673 -21.249119 94.785690
RightForeArm -35.989515 0.000000 9.928166
RightHand -6.337616 -0.000000 33.098545
RightHandThumb1 -24.326973 -0.000000 -32.862282
LeftUpLeg -127.515774 14.037788 -20.393450
LeftLeg 112.851905 -0.000000 -0.000000
LeftFoot -20.107480 -8.597408 -2.335280
LeftToeBase 5.352754 -0.000000 -0.000000
RightUpLeg 8.110391 17.355767 -11.317857
RightLeg 131.718626 -0.000000 -0.000000
RightFoot 40.482019 -5.317318 7.885149
RightToeBase 21.484542 -0.000000 -0.000000
3739
root -3.473239 14.294993 2.353222 30.780386 -14.713127 4.185597
Spine -31.590953 -0.197536 -5.725887
Head 2.179527 -3.170035 7.979067
LeftShoulder -22.525927 25.222063 6.384662
LeftArm 13.039662 19.721938 -75.583361
LeftForeArm 6.607865 -0.000000 29.214260
LeftHand -22.940533 0.000000 -4.278768
LeftHandThumb1 -26.253704 0.000000 33.147579
RightShoulder -24.926386 -2.193827 -28.399492
RightArm -44.640646 -21.188179 94.757854
RightForeArm -36.105124 0.000000 9.948711
RightHand -6.148763 -0.000000 33.110431
RightHandThumb1 -24.326973 -0.000000 -32.862282
LeftUpLeg -127.524654 13.997829 -20.442071
LeftLeg 112.808505 -0.000000 -0.000000
LeftFoot -20.086838 -8.604766 -2.310904
LeftToeBase 5.497076 -0.000000 -0.000000
RightUpLeg 8.061923 17.299182 -11.353038
RightLeg 131.749009 -0.000000 -0.000000
RightFoot 40.470692 -5.311610 7.887406
RightToeBase 21.467908 -0.000000 -0.000000
3740
root -3.472258 14.300145 2.346810 30.803100 -14.689926 4.215807
Spine -31.551759 -0.290071 -5.685366
Head 2.159100 -3.183991 7.963534
LeftShoulder -22.475664 25.246339 6.360168
LeftArm 13.099862 19.645906 -75.474580
LeftForeArm 6.673675 -0.000000 29.245386
LeftHand -22.958430 -0.000000 -4.511285
LeftHandThumb1 -26.253704 0.000000 33.147579
RightShoulder -24.902129 -2.182601 -28.402349
RightArm -44.585686 -21.145273 94.732472
RightForeArm -36.154162 -0.000000 9.961988
RightHand -6.123182 0.000000 33.040609
RightHandThumb1 -24.326973 -0.000000 -32.862282
LeftUpLeg -127.534109 13.957130 -20.482465
LeftLeg 112.767277 -0.000000 -0.000000
LeftFoot -20.037787 -8.614751 -2.287960
LeftToeBase 5.362568 -0.000000 -0.000000
RightUpLeg 8.016329 17.245100 -11.383374
RightLeg 131.786642 -0.000000 -0.000000
RightFoot 40.455379 -5.303664 7.922563
RightToeBase 21.555804 -0.000000 -0.000000
3741
root -3.471369 14.305831 2.339801 30.823992 -14.672401 4.240315
Spine -31.506286 -0.370645 -5.648162
Head 2.138938 -3.177207 7.946541
LeftShoulder -22.402288 25.219789 6.378600
LeftArm 13.126744 19.599136 -75.403434
LeftForeArm 6.710738 -0.000000 29.221571
LeftHand -22.914758 -0.000000 -4.446487
LeftHandThumb1 -26.253704 0.000000 33.147579
RightShoulder -24.879164 -2.148713 -28.405411
RightArm -44.552303 -21.106600 94.710479
RightForeArm -36.153411 0.000000 9.972135
RightHand -6.074479 -0.000000 32.982017
RightHandThumb1 -24.326973 -0.000000 -32.862282
LeftUpLeg -127.543066 13.930022 -20.523943
LeftLeg 112.725100 -0.000000 -0.000000
LeftFoot -20.016417 -8.593301 -2.244472
LeftToeBase 5.383458 -0.000000 -0.000000
RightUpLeg 7.967658 17.195689 -11.412785
RightLeg 131.824448 -0.000000 -0.000000
RightFoot 40.473281 -5.287797 7.924384
RightToeBase 21.552875 -0.000000 -0.000000
3742
root -3.470923 14.311568 2.331541 30.838595 -14.641908 4.286161
Spine -31.453971 -0.496234 -5.625231
Head 2.113918 -3.158969 7.944519
LeftShoulder -22.372467 25.237754 6.391370
LeftArm 13.230511 19.596920 -75.290792
LeftForeArm 6.716968 -0.000000 29.200572
LeftHand -22.930075 0.000000 -4.333394
LeftHandThumb1 -26.253704 0.000000 33.147579
RightShoulder -24.842545 -2.122406 -28.388116
RightArm -44.497868 -21.082325 94.682106
RightForeArm -36.023014 0.000000 10.016829
RightHand -6.136415 0.000000 33.034348
RightHandThumb1 -24.326973 -0.000000 -32.862282
LeftUpLeg -127.542112 13.882367 -20.581032
LeftLeg 112.665080 -0.000000 -0.000000
LeftFoot -19.947489 -8.668309 -2.296815
LeftToeBase 5.340108 -0.000000 -0.000000
RightUpLeg 7.928901 17.122878 -11.444425
RightLeg 131.871283 -0.000000 -0.000000
RightFoot 40.465019 -5.280240 7.890768
RightToeBase 21.366736 -0.000000 -0.000000
